<svg xmlns="http://www.w3.org/2000/svg" viewBox="0 0 512 512">
  <defs>
    <linearGradient id="bg" x1="72" x2="440" y1="56" y2="456" gradientUnits="userSpaceOnUse">
      <stop stop-color="#BFE8FF"/>
      <stop offset="1" stop-color="#6BB6E8"/>
    </linearGradient>
  </defs>
  <rect width="512" height="512" rx="112" fill="url(#bg)"/>
  <path d="M143 172c0-31 25-56 56-56h114c31 0 56 25 56 56v168c0 31-25 56-56 56H199c-31 0-56-25-56-56V172Z" fill="#FFFFFF" opacity=".86"/>
  <path d="M178 154c8-22 29-38 54-38h114c12 0 23 4 32 10-8-23-29-38-54-38H210c-31 0-56 25-56 56v168c0 19 10 36 24 46V154Z" fill="#EAF7FF"/>
  <path d="M205 235h102M205 278h102M205 321h72" stroke="#2C6D9A" stroke-width="22" stroke-linecap="round"/>
  <circle cx="358" cy="158" r="36" fill="#FFE59A"/>
</svg>
